# xmcd
#
# Track frame offsets:
#	183
#	9815
#	28995
#	50710
#	63365
#	83573
#	105550
#	113465
#	133540
#	143980
#	163125
#	179023
#	191308
#	218623
#	240428
#
# Disc length: 3629 seconds
#
# Revision: 7
# Processed by: cddbd v1.5.2PL0 Copyright (c) Steve Scherf et al.
# Submitted via: audiograbber 1.83.01
#
DISCID=c20e2b0f
DTITLE=Enigma - MCMXC a.D. - The Limited Edition
DYEAR=1991
DGENRE=New Age
TTITLE0=The Voice Of Enigma
TTITLE1=Principles Of Lust - Sadeness
TTITLE2=Principles Of Lust - Find Love
TTITLE3=Principles Of Lust - Sadeness (Reprise)
TTITLE4=Callas Went Away
TTITLE5=Mea Culpa
TTITLE6=The Voice and The Snake
TTITLE7=Knocking On Forbidden Doors
TTITLE8=Back To The Rivers Of Belief - Way To Eternity
TTITLE9=Back To The Rivers Of Belief - Hallelujah
TTITLE10=Back To The Rivers Of Belief - The Rivers Of Belief
TTITLE11=Sadeness (Meditation)
TTITLE12=Mea Culpa (Fading Shades)
TTITLE13=Principles Of Lust (Everlasting Lust)
TTITLE14=The Rivers Of Belief (The Returning Silence)
EXTD=
EXTT0=
EXTT1=
EXTT2=
EXTT3=
EXTT4=
EXTT5=
EXTT6=
EXTT7=
EXTT8=
EXTT9=
EXTT10=
EXTT11=
EXTT12=
EXTT13=
EXTT14=
PLAYORDER=
